# xmcd CD database file
#
# Track frame offsets:
#	150
#	19853
#	31798
#	49448
#	65468
#	82739
#	102441
#	120712
#	147716
#	167017
#	179297
#	198088
#
# Disc length: 3103 seconds
#
# Revision: 0
# Processed by: cddbd v1.5.1PL0 Copyright (c) Steve Scherf et al.
# Submitted via: CDex 1.51
#
DISCID=a00c1d0c
DTITLE=PIERROT - HEAVEN〜THE CUSTOMIZED LANDSCAPE〜
DYEAR=2002
DGENRE=Rock
TTITLE0=HEAVEN
TTITLE1=新月
TTITLE2=DRAMATIC NEO ANNIVERSARY
TTITLE3=HOME SICK
TTITLE4=LOVE&PEACE
TTITLE5=COCOON
TTITLE6=BELIEVER
TTITLE7=AUTOMATION AIR
TTITLE8=壊れていくこの世界で
TTITLE9=OVER DOSE
TTITLE10=REBIRTH DAY
TTITLE11=BIRTHDAY
EXTD=YEAR: 2002
EXTT0=
EXTT1=
EXTT2=
EXTT3=
EXTT4=
EXTT5=
EXTT6=
EXTT7=
EXTT8=
EXTT9=
EXTT10=
EXTT11=
PLAYORDER=
